<svg xmlns="http://www.w3.org/2000/svg" xmlns:xlink="http://www.w3.org/1999/xlink" width="38" height="54" viewBox="0 0 38 54"><defs><path id="nyjya" d="M1088 4697.7a8 8 0 0 1 8-8h1.34v-6.04a9.66 9.66 0 0 1 19.32 0v6.04h1.34a8 8 0 0 1 8 8v3.97h-.036c.024.167.036.337.036.51 0 1.983-1.594 3.59-3.56 3.59s-3.56-1.607-3.56-3.59c0-.173.012-.343.036-.51h-.036v13.505c0-1.985 1.594-3.595 3.56-3.595s3.56 1.61 3.56 3.595c0 .175-.012.347-.036.515h.036v4.31a8 8 0 0 1-8 8h-22a8 8 0 0 1-8-8zm30.88 17.99h.036a3.66 3.66 0 0 1-.036-.515zm-24.09.47a5 5 0 0 0 5 5h19.08v-19.28a5 5 0 0 0-5-5h-14.08a5 5 0 0 0-5 5zm7.64-27.32h9.14v-4.97a4.57 4.57 0 0 0-9.14 0zm-5.09 12.67a2.39 2.39 0 0 1 2.39-2.39h13.91a2.39 2.39 0 0 1 2.39 2.39v17.07h-12.545a6.145 6.145 0 1 1 0-12.29h7.875v-2.39h-14.02zm14.02 11.95v-2.05h-9.34v2.05z"/></defs><g><g transform="translate(-1088 -4674)"><use fill="#53575b" xlink:href="#nyjya"/></g></g></svg>