<svg xmlns="http://www.w3.org/2000/svg" xmlns:xlink="http://www.w3.org/1999/xlink" width="28" height="35" viewBox="0 0 28 35"><defs><path id="h4cba" d="M93.25 45.072c-.145 0-.22-.003-.295-.004l-.179-.003A17.279 17.279 0 0 1 81.001 40a17.267 17.267 0 0 1-12.677 5.066c-.116-.003-.232-.008-.347-.012a18.018 18.018 0 0 1-.89-.062l-.087.002v8.447c0 9.455 5.554 17.618 13.59 21.425l.198.094A.59.59 0 0 0 81 75a.546.546 0 0 0 .206-.04C89.353 71.194 95 62.975 95 53.44v-8.443c-.04 0-.078-.001-.117-.003a17.55 17.55 0 0 1-1.633.078zm-14.403 20.04s.698-6.832.755-7.978A2.927 2.927 0 0 1 81 51.628a2.927 2.927 0 1 1 1.39 5.51c.06 1.136.762 7.974.762 7.974z"/><linearGradient id="h4cbb" x1="81" x2="81" y1="40" y2="75" gradientUnits="userSpaceOnUse"><stop offset="0" stop-color="#4da3fc"/><stop offset="1" stop-color="#027eff"/></linearGradient></defs><g><g transform="translate(-67 -40)"><use fill="url(#h4cbb)" xlink:href="#h4cba"/></g></g></svg>