<svg xmlns="http://www.w3.org/2000/svg" xmlns:xlink="http://www.w3.org/1999/xlink" width="23" height="27" viewBox="0 0 23 27"><defs><path id="ops9a" d="M69.217 322.667a2.667 2.667 0 1 0 0 5.333 2.667 2.667 0 0 0 0-5.333zm1.767 2.661a1.773 1.773 0 1 1-3.545 0 1.773 1.773 0 0 1 3.545 0zm2.677 2.228a6.667 6.667 0 1 1-13.333 0 6.667 6.667 0 0 1 13.333 0zm-13.334 3.556a7.59 7.59 0 0 0 3.11 3.111l-3.554 3.555h-3.11v2.666h-2.667v2.667h-2.667V340zm4.03 3.526a7.556 7.556 0 1 0-4.444-4.444l-9.363 9.362V344h4.444v-2.667h2.667v-2.666h2.667z"/></defs><g><g opacity=".8" transform="translate(-51 -319)"><use fill="#707d86" xlink:href="#ops9a"/></g></g></svg>